<svg width="32px" height="33px" viewBox="0 0 32 33" fill="none" xmlns="http://www.w3.org/2000/svg" transform="rotate(0) scale(1, 1)">
<path d="M0 9.04017C0 10.5134 1.57366 10.8817 2.51116 9.92746L9.92746 2.51116C10.8984 1.55691 10.5134 0 9.04017 0H1.52344C0.585937 0 0 0.63616 0 1.54017V9.04017ZM4.3192 6.42857L25.5301 27.6563L27.6563 25.5636L6.44531 4.3192L4.3192 6.42857ZM31.9921 22.952C31.9921 21.462 30.4186 21.1104 29.4643 22.048L22.048 29.4643C21.0937 30.4353 21.4789 31.9921 22.952 31.9921H30.4687C31.4063 31.9921 31.9921 31.3393 31.9921 30.452V22.952ZM31.9921 9.04017V1.54017C31.9921 0.63616 31.4063 0 30.4687 0H22.952C21.4789 0 21.0937 1.55691 22.048 2.51116L29.4643 9.92746C30.4186 10.8817 31.9921 10.5134 31.9921 9.04017ZM6.44531 27.6563L27.673 6.42857L25.5469 4.3192L4.3192 25.5469L6.44531 27.6563ZM0 22.952V30.452C0 31.3393 0.585937 31.9921 1.52344 31.9921H9.04017C10.5134 31.9921 10.8984 30.4353 9.92746 29.4643L2.51116 22.048C1.57366 21.1104 0 21.462 0 22.952Z" fill="#000000"/>
</svg>