<svg width="40px" height="35px" viewBox="0 0 40 35" fill="none" xmlns="http://www.w3.org/2000/svg" transform="rotate(0) scale(1, 1)">
<path d="M7.15399 34.0752C8.27842 34.0752 9.17472 33.1789 9.17472 32.0545C9.17472 30.93 8.26213 30.0338 7.15399 30.0338C6.02956 30.0338 5.13328 30.9463 5.13328 32.0545C5.13328 33.1952 6.04586 34.0752 7.15399 34.0752ZM2.03701 21.6738C3.16145 21.6738 4.05773 20.745 4.05773 19.6368C4.05773 18.4961 3.12885 17.6161 2.03701 17.6161C0.912582 17.6161 0 18.5287 0 19.6368C0 20.7613 0.928879 21.6738 2.03701 21.6738ZM7.15399 9.27249C8.27842 9.27249 9.17472 8.35991 9.17472 7.25177C9.17472 6.11104 8.26213 5.23105 7.15399 5.23105C6.02956 5.23105 5.13328 6.12734 5.13328 7.25177C5.13328 8.37621 6.04586 9.27249 7.15399 9.27249ZM19.6531 4.05773C20.7775 4.05773 21.6738 3.14515 21.6738 2.02071C21.6738 0.896286 20.7613 0 19.6531 0C18.5124 0 17.6324 0.912582 17.6324 2.02071C17.6324 3.16145 18.5287 4.05773 19.6531 4.05773ZM32.136 9.2399C33.2604 9.2399 34.1567 8.32731 34.1567 7.21918C34.1567 6.07845 33.244 5.19846 32.136 5.19846C30.9953 5.19846 30.0989 6.09474 30.0989 7.21918C30.0989 8.34361 31.0115 9.2399 32.136 9.2399ZM37.2692 21.6738C38.3937 21.6738 39.3062 20.745 39.3062 19.6368C39.3062 18.4961 38.3774 17.6161 37.2692 17.6161C36.1285 17.6161 35.2321 18.5287 35.2321 19.6368C35.2321 20.7613 36.1611 21.6738 37.2692 21.6738ZM32.1197 34.0914C33.244 34.0914 34.1404 33.1952 34.1404 32.0708C34.1404 30.9463 33.2277 30.0501 32.1197 30.0501C30.9788 30.0501 30.0826 30.9626 30.0826 32.0708C30.0826 33.2115 30.9953 34.0914 32.1197 34.0914ZM19.6531 31.5003C26.1878 31.5003 31.5003 26.2042 31.5003 19.6368C31.5003 13.5095 26.8397 8.47398 20.859 7.87103L20.8428 19.8813C20.8428 20.5331 20.2723 21.1035 19.6531 21.0872C18.9361 21.0545 18.4309 20.5493 18.4309 19.8486V7.87103C12.4665 8.47398 7.78954 13.5095 7.78954 19.6368C7.78954 26.2205 13.1184 31.5003 19.6531 31.5003Z" fill="#000000"/>
</svg>