<svg width="33px" height="34px" viewBox="0 0 33 34" fill="none" xmlns="http://www.w3.org/2000/svg" transform="rotate(0) scale(1, 1)">
<path d="M17.7174 3.28298C18.4805 3.28298 19.0611 2.70235 19.0611 1.93924C19.0611 1.19273 18.4805 0.612097 17.7174 0.612097H5.57401L8.21171 3.28298H17.7174ZM22.379 8.02752C23.1255 8.02752 23.7227 7.43031 23.7227 6.66719C23.7227 5.92068 23.1255 5.35664 22.379 5.35664H10.2024L12.8401 8.02752H22.379ZM26.941 12.7555C27.6876 12.7555 28.2683 12.1583 28.2683 11.3952C28.2683 10.6486 27.6876 10.0846 26.941 10.0846H14.8309L17.4685 12.7555H26.941ZM31.5529 14.8126H19.4593C20.4546 15.8245 20.9025 16.4383 20.9689 17.4835H31.5529C32.2994 17.4835 32.8966 16.9028 32.8966 16.1398C32.8966 15.3932 32.2994 14.8126 31.5529 14.8126ZM16.2077 31.2028L10.2522 17.2844L9.45591 18.6447L17.7174 19.1092C18.8289 19.1756 19.3598 17.9811 18.5635 17.1682L2.14002 0.379847C1.41009 -0.366673 0.282019 0.0480609 0.282019 1.09319L0 24.451C0 25.5955 1.27738 26.0602 2.00731 25.214L7.34907 19.3082L5.80626 18.9101L11.5628 33.1438C11.795 33.7078 12.3756 33.9732 12.8899 33.741L15.7433 32.5631C16.2741 32.3641 16.4566 31.7502 16.2077 31.2028Z" fill="#000000"/>
</svg>