<svg width="35px" height="35px" viewBox="0 0 35 35" fill="none" xmlns="http://www.w3.org/2000/svg" transform="rotate(0) scale(1, 1)">
<path d="M2.86273 17.0759C2.86273 15.5524 3.0971 14.0792 3.53237 12.7232L0.904017 11.6183C0.334821 13.3426 0 15.1674 0 17.0759C0 18.9676 0.334821 20.8091 0.920759 22.5334L3.53237 21.4286C3.0971 20.0726 2.86273 18.5993 2.86273 17.0759ZM10.5636 4.38616L9.49219 1.80803C6.17746 3.4654 3.44866 6.1942 1.7913 9.50893L4.4029 10.5971C5.74219 7.93527 7.91853 5.75893 10.5636 4.38616ZM17.0591 2.84599C18.5826 2.84599 20.0559 3.08036 21.4453 3.53237L22.5167 0.920759C20.7924 0.334821 18.9509 0 17.0591 0C15.1674 0 13.3092 0.334821 11.5848 0.920759L12.6897 3.53237C14.0625 3.08036 15.5357 2.84599 17.0591 2.84599ZM29.7489 10.5804L32.3437 9.50893C30.6697 6.1942 27.9409 3.4654 24.6261 1.7913L23.5547 4.38616C26.1997 5.74219 28.3929 7.91853 29.7489 10.5804ZM31.3059 17.0759C31.3059 18.5993 31.0714 20.0726 30.6361 21.4453L33.231 22.5503C33.817 20.8259 34.1517 18.9676 34.1517 17.0759C34.1517 15.1674 33.817 13.3259 33.231 11.6016L30.6194 12.7065C31.0714 14.0792 31.3059 15.5524 31.3059 17.0759ZM23.5547 29.7489L24.6261 32.3604C27.9576 30.6864 30.6864 27.9576 32.327 24.6429L29.7656 23.5714C28.4096 26.2333 26.2166 28.3929 23.5547 29.7489ZM17.0759 31.3059C15.5357 31.3059 14.0625 31.0714 12.6897 30.6194L11.6016 33.231C13.3259 33.817 15.1841 34.1517 17.0759 34.1517C18.9676 34.1517 20.8091 33.817 22.5167 33.2477L21.4286 30.6361C20.0559 31.0714 18.5993 31.3059 17.0759 31.3059ZM4.4029 23.5714L1.80803 24.6429C3.48214 27.9576 6.17746 30.6864 9.49219 32.3437L10.5636 29.7321C7.91853 28.3761 5.74219 26.2166 4.4029 23.5714ZM17.0424 28.7611C23.5547 28.7611 28.7444 23.5714 28.7277 17.0759C28.711 10.5804 23.5211 5.39063 17.0257 5.39063C10.5301 5.39063 5.37389 10.5636 5.37389 17.0759C5.37389 23.5881 10.5469 28.7611 17.0424 28.7611Z" fill="#000000"/>
</svg>