<svg width="30px" height="40px" viewBox="0 0 30 40" fill="none" xmlns="http://www.w3.org/2000/svg" transform="rotate(0) scale(1, 1)">
<path d="M0 34.4866C0 35.7924 0.284598 36.5793 1.52344 37.1819C4.38616 38.4207 8.33706 39.2411 13.0748 39.2411C17.7623 39.2411 23.0357 38.538 26.8191 36.6964C28.8281 35.7421 29.3136 34.8549 29.3136 32.779V7.08147C29.3136 4.36941 28.1083 3.13059 25.4967 3.13059H23.923V2.46094C23.923 0.803571 23.086 0 21.6127 0C21.1104 0 20.5079 0.117187 19.788 0.351563C14.7321 2.00893 10.1116 3.06361 4.18527 3.06361H2.84599C1.03795 3.06361 0 4.1183 0 5.75893V34.4866ZM5.94309 15.7533V10.0949C5.94309 9.86049 6.11049 9.6596 6.34487 9.64286C10.2455 9.49219 13.7277 8.8058 17.2936 7.5C17.4944 7.4163 17.846 7.5 17.846 7.90179V13.8114C17.846 13.9621 17.7623 14.1127 17.6116 14.1629C14.4977 15.4353 10.3962 16.1551 6.34487 16.1551C6.12723 16.1551 5.94309 16.0211 5.94309 15.7533ZM6.79687 36.3783C13.3761 36.1941 19.4866 34.3527 22.8013 31.8247C23.5714 31.2389 23.923 30.6361 23.923 29.163V5.82589H25.5134C26.25 5.82589 26.6183 6.22769 26.6183 7.08147V32.5949C26.6183 33.5993 26.4676 33.9676 25.5134 34.3861C22.1819 35.8426 17.4944 36.7801 13.0748 36.7801C10.9654 36.7801 8.97321 36.663 6.79687 36.3783Z" fill="#000000"/>
</svg>