<svg width="36px" height="32px" viewBox="0 0 36 32" fill="none" xmlns="http://www.w3.org/2000/svg" transform="rotate(0) scale(1, 1)">
<g clip-path="url(#clip0_77_29511)">
<path d="M4.26897 25.5803L5.625 27.8906L17.5614 21.8973L29.4977 27.8906L30.8539 25.5803L18.9174 19.587V5.45759H16.2221V19.587L4.26897 25.5803ZM0.0334821 27.9743C0.0334821 28.6607 0.31808 29.163 0.920759 29.4977L4.26897 31.4564C4.70424 31.7243 5.00559 31.7746 5.59151 31.4397L8.85603 29.548C9.4587 29.2131 9.57589 28.9286 9.55916 28.3761L9.57589 24.4921C9.57589 23.8226 9.27456 23.337 8.70536 23.0023L5.3404 21.0436C4.90513 20.8091 4.53683 20.7254 3.96763 21.0436L0.652901 22.9687C0.0837054 23.2869 0 23.6217 0 24.0904L0.0334821 27.9743ZM25.4631 28.3929C25.4464 28.9453 25.5636 29.2299 26.1663 29.5647L29.4309 31.4564C30.0167 31.7913 30.3181 31.7411 30.7533 31.4731L34.1016 29.5146C34.7043 29.1797 34.9889 28.6774 34.9889 27.9911L35.0223 24.1071C35.0223 23.6384 34.9386 23.3036 34.3694 22.9854L31.0547 21.0603C30.4854 20.7421 30.1171 20.8259 29.6819 21.0603L26.317 23.019C25.7477 23.3539 25.4464 23.8393 25.4464 24.5089L25.4631 28.3929ZM13.2924 8.32031L16.6741 10.2623C17.2433 10.5804 17.7957 10.5804 18.365 10.2623L21.7467 8.32031C22.2154 8.05246 22.4163 7.80134 22.4163 7.11496V3.33147C22.4163 2.66183 22.2154 2.42746 21.7801 2.17634L18.3984 0.251116C17.7957 -0.0837053 17.2266 -0.0837053 16.6406 0.251116L13.2589 2.17634C12.8404 2.41071 12.606 2.66183 12.606 3.33147V7.11496C12.606 7.80134 12.8571 8.0692 13.2924 8.32031Z" fill="#000000"/>
</g>
<defs>
<clipPath id="clip0_77_29511">
<rect width="35.0223" height="31.7579" fill="#ffffff"/>
</clipPath>
</defs>
</svg>