<svg width="24px" height="36px" viewBox="0 0 24 36" fill="none" xmlns="http://www.w3.org/2000/svg" transform="rotate(0) scale(1, 1)">
<path d="M1.51927 35.62C2.40553 35.62 2.83923 35.1487 2.99008 34.3755L6.72369 15.3681L4.83803 16.8955H18.9051L17.0194 15.3681L20.753 34.3755C20.9039 35.1487 21.3375 35.62 22.2238 35.62C23.4871 35.62 23.9209 34.7527 23.7134 33.7343L20.1872 15.7829C19.961 14.595 18.9615 13.7276 17.8114 13.7276H5.95057C4.80031 13.7276 3.80092 14.595 3.57463 15.7829L0.048462 33.7343C-0.15896 34.7527 0.293597 35.62 1.51927 35.62ZM5.53571 15.255H18.2262L13.5309 1.24453C13.248 0.452557 12.7201 0 11.9092 0C11.0607 0 10.4761 0.452557 10.2121 1.24453L5.53571 15.255Z" fill="#000000"/>
</svg>