<svg width="37px" height="35px" viewBox="0 0 37 35" fill="none" xmlns="http://www.w3.org/2000/svg" transform="rotate(0) scale(1, 1)">
<path fill-rule="evenodd" clip-rule="evenodd" d="M33.3324 0C32.7068 0 32.0951 0.185189 31.5746 0.532229L23.1096 6.17555C20.7824 7.72699 18.6824 9.57819 16.8601 11.6743C20.3848 13.275 23.2264 16.1166 24.8271 19.6413C26.9232 17.819 28.7744 15.719 30.3258 13.3918L35.9692 4.92681C36.3162 4.40625 36.5014 3.79462 36.5014 3.16898C36.5014 1.4188 35.0826 0 33.3324 0ZM19.5006 23.3748C20.7981 22.654 22.0387 21.8438 23.2142 20.9519C21.7941 17.481 19.0204 14.7073 15.5495 13.2872C14.6576 14.4627 13.8474 15.7033 13.1266 17.0008L12.6624 17.8364C15.5565 18.6642 17.8372 20.9449 18.665 23.839L19.5006 23.3748ZM10.2514 20C6.79957 20 4.00139 22.7982 4.00139 26.25C4.00139 27.6307 2.88211 28.75 1.50139 28.75C1.44478 28.75 1.38844 28.7481 1.33246 28.7444C0.87221 28.714 0.432601 28.9395 0.188828 29.3311C-0.0549445 29.7226 -0.0632586 30.2167 0.167199 30.6162C1.67687 33.2336 4.50708 35 7.75139 35C12.5839 35 16.5014 31.0825 16.5014 26.25C16.5014 22.7982 13.7032 20 10.2514 20Z" fill="#000000"/>
</svg>