<svg width="20" height="18" viewBox="0 0 20 18" fill="none" xmlns="http://www.w3.org/2000/svg">
<path fill-rule="evenodd" clip-rule="evenodd" d="M0 3C0 1.34315 1.34315 0 3 0H16.5C18.1569 0 19.5 1.34315 19.5 3V15C19.5 16.6569 18.1569 18 16.5 18H3C1.34315 18 0 16.6569 0 15V3ZM3.96967 3.96967C4.26256 3.67678 4.73744 3.67678 5.03033 3.96967L7.28033 6.21967C7.57322 6.51256 7.57322 6.98744 7.28033 7.28033L5.03033 9.53033C4.73744 9.82322 4.26256 9.82322 3.96967 9.53033C3.67678 9.23744 3.67678 8.76256 3.96967 8.46967L5.68934 6.75L3.96967 5.03033C3.67678 4.73744 3.67678 4.26256 3.96967 3.96967ZM8.25 8.25C7.83579 8.25 7.5 8.58579 7.5 9C7.5 9.41421 7.83579 9.75 8.25 9.75H11.25C11.6642 9.75 12 9.41421 12 9C12 8.58579 11.6642 8.25 11.25 8.25H8.25Z" fill="black"/>
</svg>
