<svg width="22" height="22" viewBox="0 0 22 22" fill="none" xmlns="http://www.w3.org/2000/svg">
<path d="M14.429 9.89999C14.9933 9.89999 15.4215 9.38062 15.1937 8.86434C14.4495 7.17744 12.7622 6 10.8 6C10.6245 6 10.4512 6.00942 10.2806 6.02777C9.71915 6.08818 9.48299 6.71885 9.76535 7.20791L11.0598 9.44999C11.2206 9.72845 11.5177 9.89999 11.8392 9.89999L14.429 9.89999Z" fill="black"/>
<path d="M8.20737 8.10942C7.92493 7.62022 7.26032 7.50933 6.92633 7.9649C6.34393 8.7593 6 9.73949 6 10.8C6 11.8605 6.34395 12.8408 6.92638 13.6352C7.26038 14.0907 7.92498 13.9798 8.20742 13.4906L9.50101 11.2501C9.66178 10.9716 9.66178 10.6285 9.50101 10.3501L8.20737 8.10942Z" fill="black"/>
<path d="M9.76542 14.3921C9.48306 14.8812 9.71923 15.5118 10.2807 15.5722C10.4513 15.5906 10.6245 15.6 10.8 15.6C12.7623 15.6 14.4495 14.4225 15.1937 12.7356C15.4215 12.2193 14.9933 11.7 14.429 11.7H11.8393C11.5178 11.7 11.2207 11.8715 11.0599 12.15L9.76542 14.3921Z" fill="black"/>
<path fill-rule="evenodd" clip-rule="evenodd" d="M15.7554 4.01669L16.5293 2.67633C16.7778 2.24587 16.6303 1.69544 16.1999 1.44691C15.7694 1.19838 15.219 1.34587 14.9705 1.77633L14.1974 3.11538C13.4198 2.77112 12.5802 2.54141 11.7 2.44765V0.9C11.7 0.402944 11.2971 0 10.8 0C10.3029 0 9.9 0.402944 9.9 0.9V2.44765C9.01979 2.54141 8.1802 2.77112 7.40264 3.11539L6.62955 1.77636C6.38102 1.3459 5.83059 1.19841 5.40013 1.44694C4.96966 1.69546 4.82218 2.2459 5.0707 2.67636L5.84455 4.0167C5.14541 4.52832 4.52831 5.14541 4.0167 5.84455L2.6761 5.07056C2.24564 4.82203 1.69521 4.96952 1.44668 5.39998C1.19815 5.83045 1.34564 6.38088 1.7761 6.62941L3.11538 7.40264C2.77112 8.1802 2.54141 9.01979 2.44765 9.9H0.9C0.402944 9.9 0 10.3029 0 10.8C0 11.2971 0.402944 11.7 0.9 11.7H2.44765C2.54141 12.5802 2.77112 13.4198 3.11537 14.1973L1.7761 14.9706C1.34564 15.2191 1.19815 15.7695 1.44668 16.2C1.69521 16.6304 2.24564 16.7779 2.6761 16.5294L4.01668 15.7554C4.52826 16.4545 5.1453 17.0716 5.84437 17.5832L5.07045 18.9236C4.82192 19.3541 4.96941 19.9045 5.39987 20.1531C5.83034 20.4016 6.38077 20.2541 6.6293 19.8236L7.40244 18.4845C8.18005 18.8288 9.01971 19.0586 9.9 19.1524V20.7C9.9 21.1971 10.3029 21.6 10.8 21.6C11.2971 21.6 11.7 21.1971 11.7 20.7V19.1524C12.5803 19.0586 13.4199 18.8288 14.1976 18.4845L14.9707 19.8237C15.2192 20.2541 15.7697 20.4016 16.2001 20.1531C16.6306 19.9046 16.7781 19.3541 16.5295 18.9237L15.7556 17.5832C16.4547 17.0716 17.0717 16.4546 17.5833 15.7555L18.9237 16.5294C19.3542 16.7779 19.9046 16.6304 20.1531 16.2C20.4017 15.7695 20.2542 15.2191 19.8237 14.9706L18.4846 14.1974C18.8289 13.4198 19.0586 12.5802 19.1524 11.7H20.7C21.1971 11.7 21.6 11.2971 21.6 10.8C21.6 10.3029 21.1971 9.9 20.7 9.9H19.1524C19.0586 9.01976 18.8289 8.18014 18.4846 7.40255L19.8237 6.62941C20.2542 6.38088 20.4017 5.83045 20.1531 5.39998C19.9046 4.96952 19.3542 4.82203 18.9237 5.07056L17.5832 5.84448C17.0716 5.14536 16.4546 4.52829 15.7554 4.01669ZM10.8 4.2C9.61344 4.2 8.50001 4.51312 7.53783 5.06125C7.52552 5.06917 7.51295 5.07684 7.50013 5.08424C7.48774 5.0914 7.47525 5.09822 7.46267 5.10472C6.48802 5.67708 5.67331 6.49249 5.10178 7.46768C5.09609 7.47852 5.09016 7.48929 5.08399 7.49998C5.07756 7.51111 5.07094 7.52205 5.06412 7.53279C4.51422 8.49612 4.2 9.61136 4.2 10.8C4.2 11.9885 4.51415 13.1036 5.06394 14.0669C5.07082 14.0777 5.07751 14.0888 5.08399 14.1C5.09022 14.1108 5.0962 14.1216 5.10194 14.1326C5.67383 15.1083 6.48918 15.924 7.4646 16.4964C7.47644 16.5026 7.4882 16.509 7.49987 16.5158C7.512 16.5228 7.5239 16.53 7.53558 16.5375C8.49827 17.0864 9.61251 17.4 10.8 17.4C11.9877 17.4 13.102 17.0863 14.0648 16.5372C14.0764 16.5299 14.0881 16.5227 14.1001 16.5158C14.1117 16.5091 14.1233 16.5027 14.135 16.4966C15.1096 15.9248 15.9244 15.1101 16.4963 14.1356C16.5025 14.1236 16.509 14.1118 16.5158 14.1C16.5229 14.0878 16.5302 14.0758 16.5377 14.064C17.0865 13.1014 17.4 11.9873 17.4 10.8C17.4 9.61255 17.0864 8.49835 16.5375 7.53568C16.5301 7.52401 16.5228 7.51211 16.5158 7.49998C16.5091 7.4883 16.5026 7.47653 16.4965 7.46468C15.9249 6.49069 15.1108 5.67628 14.137 5.1045C14.1245 5.09806 14.1121 5.0913 14.0999 5.08422C14.0872 5.07689 14.0747 5.0693 14.0625 5.06145C13.1003 4.5132 11.9867 4.2 10.8 4.2Z" fill="black"/>
</svg>
