<svg width="24" height="19" viewBox="0 0 24 19" fill="none" xmlns="http://www.w3.org/2000/svg">
<path d="M2.43198 15.6991H21.2255C22.8436 15.6991 23.6575 14.9326 23.6575 13.2671V2.42252C23.6575 0.766499 22.8436 0 21.2255 0H2.43198C0.813814 0 0 0.766499 0 2.42252V13.2671C0 14.9326 0.813814 15.6991 2.43198 15.6991ZM7.06884 18.9071H16.5886C17.005 18.9071 17.3551 18.5664 17.3551 18.1405C17.3551 17.7147 17.005 17.374 16.5886 17.374H7.06884C6.65247 17.374 6.30234 17.7147 6.30234 18.1405C6.30234 18.5664 6.65247 18.9071 7.06884 18.9071ZM12.3208 11.7719C12.1126 11.7719 11.9801 11.6489 11.9517 11.4502C11.5354 8.60181 11.1663 7.96784 8.17601 7.66502C7.97729 7.6366 7.85426 7.49464 7.85426 7.30542C7.85426 7.12562 7.97729 6.97421 8.17601 6.94583C11.1568 6.54838 11.4123 6.02792 11.9517 3.15117C11.9991 2.96191 12.1315 2.83889 12.3208 2.83889C12.5006 2.83889 12.6425 2.97137 12.6709 3.16064C13.0968 5.9806 13.4847 6.54838 16.4561 6.94583C16.6454 6.97421 16.7778 7.12562 16.7778 7.30542C16.7778 7.49464 16.6454 7.6366 16.4561 7.66502C13.4753 8.06248 13.2103 8.60181 12.6709 11.4597C12.633 11.6489 12.5006 11.7719 12.3208 11.7719ZM8.47882 13.3712C8.32742 13.3712 8.25175 13.2671 8.20443 13.1157C7.9205 11.7246 8.04353 11.6584 6.51053 11.4312C6.34965 11.4029 6.26449 11.3083 6.26449 11.1568C6.26449 11.0243 6.34965 10.9108 6.4916 10.8919C8.04353 10.6364 7.9205 10.5701 8.20443 9.18855C8.25175 9.03714 8.33686 8.93305 8.47882 8.93305C8.62078 8.93305 8.71542 9.04659 8.75321 9.18855C9.01824 10.5701 8.9236 10.6364 10.4755 10.8919C10.608 10.9108 10.7026 11.0243 10.7026 11.1568C10.7026 11.2894 10.608 11.4029 10.4755 11.4312C8.9236 11.6584 9.01824 11.7246 8.75321 13.144C8.71542 13.2766 8.61134 13.3712 8.47882 13.3712Z" fill="black"/>
</svg>
