<svg width="24" height="18" viewBox="0 0 24 18" fill="none" xmlns="http://www.w3.org/2000/svg">
<path d="M3.59673 7.42088C3.81573 7.39558 4.04316 7.37876 4.26216 7.37876C4.49801 7.37876 4.72544 7.39558 4.95287 7.42929V5.59301H3.59673V7.42088ZM3.59673 4.43905H4.95287V2.67859C4.95287 1.80257 5.41615 1.35614 6.25847 1.35614H8.00208V0H6.24162C4.48117 0 3.59673 0.867593 3.59673 2.6112V4.43905ZM9.15608 1.35614H12.9549V0H9.15608V1.35614ZM14.1005 1.35614H17.8994V0H14.1005V1.35614ZM23.4587 4.43905V2.6112C23.4587 0.867593 22.5743 0 20.8138 0H19.0534V1.35614H20.797C21.6393 1.35614 22.1026 1.80257 22.1026 2.67859V4.43905H23.4587ZM23.4587 9.91413V5.59301H22.1026V9.91413H23.4587ZM20.8138 15.5072C22.5743 15.5072 23.4587 14.6396 23.4587 12.896V11.0681H22.1026V12.8286C22.1026 13.7046 21.6393 14.1511 20.797 14.1511H19.0534V15.5072H20.8138ZM14.1005 15.5072H17.8994V14.1511H14.1005V15.5072ZM8.9876 15.4988L12.9549 15.5072V14.1511H9.51828C9.40874 14.6312 9.23191 15.0776 8.9876 15.4988ZM4.27901 17.0992C6.62067 17.0992 8.55798 15.1618 8.55798 12.8202C8.55798 10.4869 6.61225 8.54118 4.27059 8.54118C1.93735 8.54118 0 10.4869 0 12.8202C0 15.1618 1.94577 17.0992 4.27901 17.0992ZM4.27901 16.0884C2.46801 16.0884 1.01921 14.6312 1.01921 12.8202C1.01921 11.0176 2.46801 9.55193 4.27059 9.55193C6.08159 9.55193 7.53882 11.0176 7.54723 12.8202C7.55564 14.6312 6.08159 16.0884 4.27901 16.0884ZM4.27059 15.3556C5.66885 15.3556 6.80598 14.21 6.80598 12.8286C6.80598 11.4387 5.66042 10.2932 4.27059 10.2932C2.88075 10.2932 1.74361 11.4387 1.74361 12.8286C1.74361 14.21 2.88917 15.3556 4.27059 15.3556Z" fill="black"/>
</svg>
