<svg width="23" height="20" viewBox="0 0 23 20" fill="none" xmlns="http://www.w3.org/2000/svg">
<path fill-rule="evenodd" clip-rule="evenodd" d="M6.6364 3.86375C6.98787 4.21522 6.98787 4.78507 6.6364 5.13654L2.17279 9.60015L6.6364 14.0637C6.98787 14.4152 6.98787 14.9851 6.6364 15.3365C6.28492 15.688 5.71508 15.688 5.3636 15.3365L0.263604 10.2365C-0.087868 9.88507 -0.087868 9.31522 0.263604 8.96375L5.3636 3.86375C5.71508 3.51228 6.28492 3.51228 6.6364 3.86375ZM15.5636 3.86375C15.9151 3.51228 16.4849 3.51228 16.8364 3.86375L21.9364 8.96375C22.2879 9.31522 22.2879 9.88507 21.9364 10.2365L16.8364 15.3365C16.4849 15.688 15.9151 15.688 15.5636 15.3365C15.2121 14.9851 15.2121 14.4152 15.5636 14.0637L20.0272 9.60015L15.5636 5.13654C15.2121 4.78507 15.2121 4.21522 15.5636 3.86375Z" fill="black"/>
<path fill-rule="evenodd" clip-rule="evenodd" d="M12.7529 0.0132323C13.2427 0.0976857 13.5714 0.563233 13.4869 1.05306L10.4869 18.4531C10.4025 18.9429 9.93691 19.2715 9.44708 19.1871C8.95726 19.1026 8.62863 18.6371 8.71309 18.1472L11.7131 0.74723C11.7975 0.257401 12.2631 -0.071221 12.7529 0.0132323Z" fill="black"/>
</svg>
