<svg width="18" height="17" viewBox="0 0 18 17" fill="none" xmlns="http://www.w3.org/2000/svg">
<path d="M2.625 0C1.17525 0 0 1.17525 0 2.625C0 4.07475 1.17525 5.25 2.625 5.25H15.375C16.8247 5.25 18 4.07475 18 2.625C18 1.17525 16.8247 0 15.375 0H2.625Z" fill="black"/>
<path d="M0.75 7.5C0.335786 7.5 0 7.83579 0 8.25C0 8.66421 0.335786 9 0.75 9H17.25C17.6642 9 18 8.66421 18 8.25C18 7.83579 17.6642 7.5 17.25 7.5H0.75Z" fill="black"/>
<path d="M0 12C0 11.5858 0.335786 11.25 0.75 11.25H17.25C17.6642 11.25 18 11.5858 18 12C18 12.4142 17.6642 12.75 17.25 12.75H0.75C0.335786 12.75 0 12.4142 0 12Z" fill="black"/>
<path d="M0.75 15C0.335786 15 0 15.3358 0 15.75C0 16.1642 0.335786 16.5 0.75 16.5H17.25C17.6642 16.5 18 16.1642 18 15.75C18 15.3358 17.6642 15 17.25 15H0.75Z" fill="black"/>
</svg>
