<svg width="34" height="34" viewBox="0 0 34 34" fill="none" xmlns="http://www.w3.org/2000/svg">
<path d="M16.25 6.39489C16.25 5.80297 15.9399 5.26794 15.5813 4.797C15.2132 4.3135 15 3.74 15 3.125C15 1.39911 16.6789 0 18.75 0C20.8211 0 22.5 1.39911 22.5 3.125C22.5 3.74 22.2868 4.3135 21.9187 4.797C21.5601 5.26794 21.25 5.80297 21.25 6.3949C21.25 6.94881 21.7128 7.391 22.2658 7.358C25.4501 7.16799 28.5831 6.78881 31.6536 6.23164C31.9915 6.17032 32.3398 6.25074 32.6166 6.45401C32.8935 6.65729 33.0744 6.9655 33.1171 7.30628C33.4905 10.2887 33.7021 13.321 33.7431 16.3941C33.7513 17.0047 33.2555 17.4998 32.6449 17.5C32.053 17.5 31.5179 17.1899 31.047 16.8313C30.5635 16.4632 29.99 16.25 29.375 16.25C27.6491 16.25 26.25 17.9289 26.25 20C26.25 22.0711 27.6491 23.75 29.375 23.75C29.99 23.75 30.5635 23.5368 31.047 23.1687C31.5179 22.8101 32.053 22.5 32.6449 22.5C33.1623 22.5 33.5731 22.9361 33.5357 23.4521C33.3379 26.1831 33.0051 28.8769 32.5439 31.5269C32.4535 32.0466 32.0465 32.4536 31.5267 32.544C28.4949 33.0717 25.4057 33.4312 22.2691 33.6127C21.7141 33.6449 21.25 33.2008 21.25 32.6449C21.25 32.053 21.5601 31.5179 21.9187 31.047C22.2868 30.5635 22.5 29.99 22.5 29.375C22.5 27.6491 20.8211 26.25 18.75 26.25C16.6789 26.25 15 27.6491 15 29.375C15 29.99 15.2132 30.5635 15.5813 31.047C15.9399 31.5179 16.25 32.053 16.25 32.6449C16.25 33.2475 15.7566 33.7342 15.1542 33.7171C12.505 33.642 9.8873 33.44 7.30689 33.1169C6.9661 33.0743 6.65789 32.8933 6.45462 32.6164C6.25135 32.3396 6.17093 31.9913 6.23225 31.6534C6.72038 28.9635 7.07191 26.2256 7.27933 23.4472C7.31763 22.9342 6.90938 22.5 6.39489 22.5C5.80297 22.5 5.26794 22.8101 4.797 23.1687C4.3135 23.5368 3.74 23.75 3.125 23.75C1.39911 23.75 0 22.0711 0 20C0 17.9289 1.39911 16.25 3.125 16.25C3.74 16.25 4.3135 16.4632 4.797 16.8313C5.26794 17.1899 5.80297 17.5 6.3949 17.5C7.0055 17.5 7.50129 17.005 7.49289 16.3944C7.45557 13.6807 7.28103 11.0004 6.97598 8.36047C6.93217 7.98134 7.06397 7.60297 7.33384 7.3331C7.6037 7.06324 7.98207 6.93144 8.3612 6.97525C10.5984 7.23376 12.8643 7.39854 15.1551 7.46552C15.7569 7.48312 16.25 6.99695 16.25 6.39489Z" fill="black"/>
</svg>
