<svg width="35" height="32" viewBox="0 0 35 32" fill="none" xmlns="http://www.w3.org/2000/svg">
<path fill-rule="evenodd" clip-rule="evenodd" d="M11.25 6.25C11.25 2.79822 14.0482 0 17.5 0C20.9518 0 23.75 2.79822 23.75 6.25C23.75 9.70178 20.9518 12.5 17.5 12.5C14.0482 12.5 11.25 9.70178 11.25 6.25Z" fill="black"/>
<path fill-rule="evenodd" clip-rule="evenodd" d="M23.75 11.25C23.75 8.48858 25.9886 6.25 28.75 6.25C31.5114 6.25 33.75 8.48858 33.75 11.25C33.75 14.0114 31.5114 16.25 28.75 16.25C25.9886 16.25 23.75 14.0114 23.75 11.25Z" fill="black"/>
<path fill-rule="evenodd" clip-rule="evenodd" d="M1.25 11.25C1.25 8.48858 3.48858 6.25 6.25 6.25C9.01142 6.25 11.25 8.48858 11.25 11.25C11.25 14.0114 9.01142 16.25 6.25 16.25C3.48858 16.25 1.25 14.0114 1.25 11.25Z" fill="black"/>
<path fill-rule="evenodd" clip-rule="evenodd" d="M8.01644 20.1959C10.0131 17.074 13.5139 15 17.5 15C21.4866 15 24.9878 17.0745 26.9843 20.197C28.3646 22.3557 28.9617 24.9587 28.6816 27.4965C28.6378 27.8932 28.4073 28.245 28.0613 28.4436C24.949 30.2294 21.3418 31.25 17.5 31.25C13.6582 31.25 10.051 30.2294 6.93874 28.4436C6.59265 28.245 6.36216 27.8931 6.31839 27.4965C6.03822 24.9582 6.63568 22.3548 8.01644 20.1959Z" fill="black"/>
<path d="M5.97047 18.7561C5.9504 18.787 5.93045 18.8179 5.91063 18.8489C4.30152 21.3648 3.56513 24.3611 3.79119 27.315C2.77778 27.1611 1.79449 26.9135 0.850713 26.5811L0.659117 26.5136C0.309598 26.3906 0.065379 26.0731 0.0359849 25.7037L0.0198719 25.5012C0.00669524 25.3357 0 25.1685 0 25C0 21.6419 2.64841 18.9024 5.97047 18.7561Z" fill="black"/>
<path d="M31.2094 27.3149C31.4354 24.3617 30.6994 21.366 29.0909 18.8503C29.0707 18.8188 29.0505 18.7875 29.0301 18.7562C32.3519 18.9027 35 21.6421 35 25C35 25.1685 34.9933 25.3357 34.9801 25.5012L34.964 25.7037C34.9346 26.0731 34.6904 26.3906 34.3409 26.5136L34.1493 26.5811C33.2057 26.9134 32.2226 27.161 31.2094 27.3149Z" fill="black"/>
</svg>
