<svg width="24" height="24" viewBox="0 0 24 24" fill="none" xmlns="http://www.w3.org/2000/svg">
<path d="M1.2354 22.6911C2.89276 24.3485 5.35371 24.4088 6.98093 22.4702C8.17625 21.0338 11.1997 16.1621 13.7912 13.5705C15.5189 11.8429 17.4273 12.7569 19.3459 11.9735L17.6383 5.74579C17.4273 4.97236 17.7387 4.3295 18.6327 4.08843L22.3995 3.08397C22.2789 2.7324 21.9475 2.25026 21.5356 1.82838C19.2153 -0.552195 15.3783 -0.582329 13.0881 1.58731C9.74323 4.77147 12.2845 8.13643 10.0847 10.3362C7.31241 13.0985 3.49545 15.1074 1.45638 16.9355C-0.452101 18.6331 -0.442056 21.0136 1.2354 22.6911ZM4.07804 21.084C3.395 21.084 2.8325 20.5315 2.8325 19.8485C2.8325 19.1655 3.395 18.6029 4.07804 18.6029C4.76107 18.6029 5.31352 19.1655 5.31352 19.8485C5.31352 20.5315 4.76107 21.084 4.07804 21.084ZM13.52 7.66433C13.299 7.72459 13.1082 7.6141 13.0378 7.37303C12.9776 7.19222 13.0981 6.97124 13.309 6.91098L15.6595 6.27816C15.8504 6.22794 16.0713 6.34848 16.1216 6.55941C16.1919 6.79044 16.0613 6.99133 15.8504 7.0516L13.52 7.66433ZM13.8213 8.8596C13.6004 8.91994 13.4095 8.80945 13.3292 8.56834C13.2689 8.38754 13.3995 8.16655 13.6104 8.11633L15.9508 7.47348C16.1416 7.43329 16.3626 7.54379 16.4229 7.75472C16.4932 7.98576 16.3526 8.18665 16.1416 8.24691L13.8213 8.8596ZM14.1126 10.055C13.9017 10.1152 13.6807 10.0047 13.6406 9.76363C13.5903 9.5628 13.7008 9.37191 13.9218 9.31165L16.2521 8.68885C16.4731 8.61857 16.684 8.74911 16.7242 8.95003C16.7745 9.15094 16.6539 9.37191 16.4631 9.42214L14.1126 10.055ZM20.4508 11.4914C20.8425 11.2603 21.2443 10.959 21.6561 10.5672C22.9218 9.42214 23.5747 7.69446 23.3135 6.46901L20.27 7.30272C19.9285 7.39312 19.6371 7.41321 19.3258 7.36298L20.4508 11.4914Z" fill="black"/>
</svg>
