<svg width="20" height="20" viewBox="0 0 20 20" fill="none" xmlns="http://www.w3.org/2000/svg">
<path fill-rule="evenodd" clip-rule="evenodd" d="M5.25 3C5.25 1.34315 6.59315 0 8.25 0H11.25C12.9069 0 14.25 1.34315 14.25 3V3.20498C15.1825 3.29034 16.1074 3.40196 17.024 3.53912C18.4781 3.75668 19.5 5.02163 19.5 6.45569V9.48889C19.5 10.7 18.7664 11.8413 17.5637 12.2411C15.1066 13.058 12.4792 13.5 9.75004 13.5C7.02087 13.5 4.39342 13.058 1.93627 12.2411C0.73364 11.8412 0 10.7 0 9.48887V6.45569C0 5.02163 1.02191 3.75668 2.47596 3.53912C3.3926 3.40196 4.31753 3.29034 5.25 3.20498V3ZM12.75 3V3.09082C11.7577 3.03056 10.7574 3 9.75001 3C8.74265 3 7.74235 3.03056 6.75 3.09082V3C6.75 2.17157 7.42157 1.5 8.25 1.5H11.25C12.0784 1.5 12.75 2.17157 12.75 3ZM9.75 11.25C10.1642 11.25 10.5 10.9142 10.5 10.5C10.5 10.0858 10.1642 9.75 9.75 9.75C9.33579 9.75 9 10.0858 9 10.5C9 10.9142 9.33579 11.25 9.75 11.25Z" fill="black"/>
<path d="M0.75 16.15V13.3539C0.973037 13.4763 1.21097 13.5807 1.46303 13.6645C4.07087 14.5315 6.85801 15 9.75004 15C12.642 15 15.4291 14.5315 18.037 13.6645C18.289 13.5807 18.527 13.4763 18.75 13.354V16.15C18.75 17.6019 17.7028 18.8775 16.2269 19.0734C14.1075 19.3548 11.9455 19.5 9.75 19.5C7.55447 19.5 5.39246 19.3548 3.27314 19.0734C1.79724 18.8775 0.75 17.6019 0.75 16.15Z" fill="black"/>
</svg>
