<svg width="22" height="19" viewBox="0 0 22 19" fill="none" xmlns="http://www.w3.org/2000/svg">
<path d="M0 17.779C0 18.2611 0.321429 18.5725 0.803571 18.5725H20.7824C21.2243 18.5725 21.596 18.2209 21.596 17.769C21.596 17.327 21.2243 16.9654 20.7824 16.9654H1.89843C1.6875 16.9654 1.61719 16.8951 1.61719 16.6842V0.803567C1.61719 0.371652 1.25558 0 0.813616 0C0.361607 0 0 0.371652 0 0.803567V17.779ZM1.05469 11.5313L7.51339 7.79465L12.1641 11.7823L20.4308 6.86049L19.798 5.83594L12.2445 10.3359L7.61384 6.3683L1.05469 10.1552V11.5313ZM7.38281 9.15066C8.36719 9.15066 9.17074 8.3471 9.17074 7.36272C9.17074 6.37835 8.36719 5.58482 7.38281 5.58482C6.39844 5.58482 5.59486 6.37835 5.59486 7.36272C5.59486 8.3471 6.39844 9.15066 7.38281 9.15066ZM12.1239 12.8371C13.1083 12.8371 13.9018 12.0335 13.9018 11.0491C13.9018 10.0647 13.1083 9.27118 12.1239 9.27118C11.1395 9.27118 10.3359 10.0647 10.3359 11.0491C10.3359 12.0335 11.1395 12.8371 12.1239 12.8371ZM19.6976 8.26674C20.6819 8.26674 21.4855 7.46317 21.4855 6.4788C21.4855 5.49442 20.6819 4.69085 19.6976 4.69085C18.7131 4.69085 17.9096 5.49442 17.9096 6.4788C17.9096 7.46317 18.7131 8.26674 19.6976 8.26674Z" fill="black"/>
</svg>
