<svg width="21" height="19" viewBox="0 0 21 19" fill="none" xmlns="http://www.w3.org/2000/svg">
<path fill-rule="evenodd" clip-rule="evenodd" d="M3.97812 3.30887C4.17178 2.67948 4.75329 2.25 5.41179 2.25H7.5C7.91421 2.25 8.25 1.91421 8.25 1.5C8.25 1.08579 7.91421 0.75 7.5 0.75H5.41179C4.09478 0.75 2.93177 1.60897 2.54446 2.86774L0.132663 10.7061C0.0447153 10.9919 0 11.2893 0 11.5883V15.75C0 17.4069 1.34315 18.75 3 18.75H18C19.6569 18.75 21 17.4069 21 15.75V11.5883C21 11.2893 20.9553 10.9919 20.8673 10.7061L18.4555 2.86774C18.0682 1.60897 16.9052 0.75 15.5882 0.75H13.5C13.0858 0.75 12.75 1.08579 12.75 1.5C12.75 1.91421 13.0858 2.25 13.5 2.25H15.5882C16.2467 2.25 16.8282 2.67948 17.0219 3.30887L19.2345 10.5H16.3906C15.2543 10.5 14.2155 11.142 13.7073 12.1584L13.4511 12.6708C13.197 13.179 12.6776 13.5 12.1094 13.5H8.89058C8.32242 13.5 7.80302 13.179 7.54894 12.6708L7.29271 12.1584C6.78453 11.142 5.74574 10.5 4.60942 10.5H1.76547L3.97812 3.30887Z" fill="black"/>
<path fill-rule="evenodd" clip-rule="evenodd" d="M10.5 0C10.9142 0 11.25 0.335786 11.25 0.75V7.18934L12.9697 5.46967C13.2626 5.17678 13.7374 5.17678 14.0303 5.46967C14.3232 5.76256 14.3232 6.23744 14.0303 6.53033L11.0303 9.53033C10.7374 9.82322 10.2626 9.82322 9.96967 9.53033L6.96967 6.53033C6.67678 6.23744 6.67678 5.76256 6.96967 5.46967C7.26256 5.17678 7.73744 5.17678 8.03033 5.46967L9.75 7.18934V0.75C9.75 0.335786 10.0858 0 10.5 0Z" fill="black"/>
</svg>
