<svg width="20" height="20" viewBox="0 0 20 20" fill="none" xmlns="http://www.w3.org/2000/svg">
<path d="M1.5364 0.263604C1.18492 -0.0878679 0.615076 -0.0878679 0.263604 0.263604C-0.0878679 0.615076 -0.0878679 1.18492 0.263604 1.5364L4.12721 5.4H0.9C0.402944 5.4 0 5.80294 0 6.3C0 6.79706 0.402944 7.2 0.9 7.2H6.3C6.79706 7.2 7.2 6.79706 7.2 6.3V0.9C7.2 0.402944 6.79706 0 6.3 0C5.80294 0 5.4 0.402944 5.4 0.9V4.12721L1.5364 0.263604Z" fill="black"/>
<path d="M13.8 0.9C13.8 0.402944 13.3971 0 12.9 0C12.4029 0 12 0.402944 12 0.9V6.3C12 6.79706 12.4029 7.2 12.9 7.2H18.3C18.7971 7.2 19.2 6.79706 19.2 6.3C19.2 5.80294 18.7971 5.4 18.3 5.4H15.0728L18.9364 1.5364C19.2879 1.18492 19.2879 0.615076 18.9364 0.263604C18.5849 -0.0878679 18.0151 -0.0878679 17.6636 0.263604L13.8 4.12721V0.9Z" fill="black"/>
<path d="M1.5364 18.9364L5.4 15.0728V18.3C5.4 18.7971 5.80294 19.2 6.3 19.2C6.79706 19.2 7.2 18.7971 7.2 18.3V12.9C7.2 12.4029 6.79706 12 6.3 12H0.9C0.402944 12 0 12.4029 0 12.9C0 13.3971 0.402944 13.8 0.9 13.8H4.12721L0.263604 17.6636C-0.0878679 18.0151 -0.0878679 18.5849 0.263604 18.9364C0.615076 19.2879 1.18492 19.2879 1.5364 18.9364Z" fill="black"/>
<path d="M13.8 15.0728L17.6636 18.9364C18.0151 19.2879 18.5849 19.2879 18.9364 18.9364C19.2879 18.5849 19.2879 18.0151 18.9364 17.6636L15.0728 13.8H18.3C18.7971 13.8 19.2 13.3971 19.2 12.9C19.2 12.4029 18.7971 12 18.3 12H12.9C12.4029 12 12 12.4029 12 12.9V18.3C12 18.7971 12.4029 19.2 12.9 19.2C13.3971 19.2 13.8 18.7971 13.8 18.3V15.0728Z" fill="black"/>
</svg>
