<svg width="21" height="18" viewBox="0 0 21 18" fill="none" xmlns="http://www.w3.org/2000/svg">
<path fill-rule="evenodd" clip-rule="evenodd" d="M0 6.83233V8.625C0 9.66053 0.839465 10.5 1.875 10.5H19.125C20.1605 10.5 21 9.66053 21 8.625V6.83233C21 6.11619 20.7438 5.42368 20.2778 4.87995L16.9929 1.04763C16.423 0.382688 15.5909 0 14.7151 0H6.28485C5.40908 0 4.57703 0.382688 4.00708 1.04763L0.72223 4.87995C0.256177 5.42368 0 6.1162 0 6.83233ZM6.28485 1.5C5.84697 1.5 5.43094 1.69134 5.14597 2.02381L2.38067 5.25H5.54584C6.5489 5.25 7.48559 5.7513 8.04199 6.5859L8.20609 6.83205C8.48429 7.24935 8.95263 7.5 9.45416 7.5H11.5458C12.0474 7.5 12.5157 7.24935 12.7939 6.83205L12.958 6.5859C13.5144 5.7513 14.4511 5.25 15.4542 5.25H18.6193L15.854 2.02381C15.5691 1.69134 15.153 1.5 14.7151 1.5H6.28485Z" fill="black"/>
<path d="M1.3125 12C0.587626 12 0 12.5876 0 13.3125V15C0 16.6569 1.34315 18 3 18H18C19.6569 18 21 16.6569 21 15V13.3125C21 12.5876 20.4124 12 19.6875 12H15.4542C14.4511 12 13.5144 12.5013 12.958 13.3359L12.7939 13.5821C12.5157 13.9993 12.0474 14.25 11.5458 14.25H9.45416C8.95263 14.25 8.48429 13.9993 8.20609 13.5821L8.04199 13.3359C7.48559 12.5013 6.5489 12 5.54584 12H1.3125Z" fill="black"/>
</svg>
