<svg width="28" height="34" viewBox="0 0 28 34" fill="none" xmlns="http://www.w3.org/2000/svg">
<path d="M13.6374 33.1432C13.9041 33.1432 14.3209 33.043 14.7377 32.8264C24.2238 27.8582 27.2748 25.3741 27.2748 19.3891V6.81868C27.2748 5.10151 26.5411 4.55134 25.1408 3.96783C23.1902 3.1676 16.9551 0.900266 15.0211 0.233403C14.571 0.0833583 14.1042 0 13.6374 0C13.1706 0 12.7038 0.10003 12.2703 0.233403C10.3197 0.866923 4.08453 3.18427 2.13396 3.96783C0.750222 4.53467 0 5.10151 0 6.81868V19.3891C0 25.3741 3.21762 27.5748 12.537 32.8264C12.9705 33.0598 13.3706 33.1432 13.6374 33.1432ZM6.11847 17.1217C6.11847 16.9216 6.2185 16.6715 6.40189 16.4549L15.8213 4.6347C16.5382 3.73443 17.7386 4.33462 17.3052 5.45161L14.2042 13.7874H20.0226C20.4727 13.7874 20.8061 14.1041 20.8061 14.5544C20.8061 14.7544 20.7061 15.0045 20.5228 15.2212L11.1033 27.0413C10.3864 27.9416 9.20272 27.3414 9.61951 26.2411L12.7371 17.8886H6.90203C6.46858 17.8886 6.11847 17.5718 6.11847 17.1217Z" fill="black"/>
</svg>
