<svg width="509.000000" height="478.000000" viewBox="0 0 509 478" fill="none" xmlns="http://www.w3.org/2000/svg" xmlns:xlink="http://www.w3.org/1999/xlink">
	<desc>
			Created with Pixso.
	</desc>
	<defs>
		<clipPath id="clip51_1454">
			<rect id="blob (3) 1" width="360.248138" height="364.097137" transform="translate(321.677246 -0.716553) rotate(58.804245)" fill="white" fill-opacity="0"/>
		</clipPath>
	</defs>
	<g opacity="0.350000">
		<rect id="blob (3) 1" width="360.248138" height="364.097137" transform="translate(321.677246 -0.716553) rotate(58.804245)" fill="#FFFFFF" fill-opacity="0"/>
		<g clip-path="url(#clip51_1454)">
			<path id="Vector" d="M461.9 276.5C461.82 317.35 426.98 358.36 385.81 374.34C344.88 390.2 297.49 380.8 249.32 381.46C201.15 382.12 152.2 392.83 124.87 374.27C97.67 355.94 92.2 307.99 95.4 266.86C98.37 225.85 109.9 191.44 126.78 157.53C143.76 123.28 166.32 89.42 202.31 64.95C238.31 40.49 287.85 25.08 321.67 41.46C355.62 58.07 373.74 106.25 400.36 150.56C426.97 194.86 461.64 235.55 461.9 276.5Z" fill="#E6FEFF" fill-opacity="1.000000" fill-rule="nonzero"/>
		</g>
	</g>
</svg>
