<svg width="66.000000" height="44.000000" viewBox="0 0 66 44" fill="none" xmlns="http://www.w3.org/2000/svg" xmlns:xlink="http://www.w3.org/1999/xlink">
	<desc>
			Created with Pixso.
	</desc>
	<defs/>
	<path id="Vector" d="M56.1 9.93L65.51 33.72L51.8 19.73L0.39 21.09L56.1 9.93Z" fill="#002C44" fill-opacity="1.000000" fill-rule="nonzero"/>
	<path id="Vector" d="M65.22 -0.9C65.22 -0.9 54.78 7.53 56.2 10.21L0.88 20.82C0.89 20.82 27.5 3.36 65.22 -0.9Z" fill="#FF7B3A" fill-opacity="1.000000" fill-rule="nonzero"/>
	<path id="Vector" d="M65.93 34.18C66.36 34.94 44.96 32.14 44.96 32.14L52.3 19.45C52.3 19.45 62.14 27.55 65.93 34.18Z" fill="#FBC949" fill-opacity="1.000000" fill-rule="nonzero"/>
	<path id="Vector" d="M52.3 19.45C52.3 19.45 42.24 34.85 47.87 43.8L0 21.02C0 21.02 47.21 18.54 52.3 19.45Z" fill="#F75E28" fill-opacity="1.000000" fill-rule="nonzero"/>
</svg>
